<svg xmlns="http://www.w3.org/2000/svg" width="800" height="600" viewBox="0 0 800 600">
  <defs>
    <linearGradient id="grad1" x1="0%" y1="0%" x2="100%" y2="100%">
      <stop offset="0%" style="stop-color:#7C3AED;stop-opacity:0.2" />
      <stop offset="100%" style="stop-color:#2563EB;stop-opacity:0.1" />
    </linearGradient>
  </defs>
  
  <!-- Background -->
  <rect width="800" height="600" fill="url(#grad1)" />
  
  <!-- Chat Bubbles -->
  <g transform="translate(250,200)">
    <!-- User Message -->
    <g transform="translate(0,0)">
      <rect x="0" y="0" width="120" height="40" rx="20" 
            fill="white" stroke="#7C3AED" stroke-width="2" />
      <circle cx="20" cy="20" r="3" fill="#7C3AED" />
      <circle cx="40" cy="20" r="3" fill="#7C3AED" />
      <circle cx="60" cy="20" r="3" fill="#7C3AED" />
    </g>
    
    <!-- AI Response -->
    <g transform="translate(150,60)">
      <rect x="0" y="0" width="150" height="40" rx="20" 
            fill="#7C3AED" opacity="0.1" stroke="#7C3AED" stroke-width="2" />
      <path d="M20,20 L40,10 L60,20 L80,10 L100,20" 
            stroke="#7C3AED" stroke-width="2" fill="none" />
    </g>
  </g>
  
  <!-- AI Brain Network -->
  <g transform="translate(300,300)">
    <!-- Nodes -->
    <g fill="#2563EB">
      <circle cx="0" cy="0" r="5" />
      <circle cx="40" cy="-20" r="5" />
      <circle cx="40" cy="20" r="5" />
      <circle cx="80" cy="0" r="5" />
    </g>
    
    <!-- Connections -->
    <g stroke="#2563EB" stroke-width="1.5">
      <line x1="0" y1="0" x2="40" y2="-20" />
      <line x1="0" y1="0" x2="40" y2="20" />
      <line x1="40" y1="-20" x2="80" y2="0" />
      <line x1="40" y1="20" x2="80" y2="0" />
    </g>
  </g>
  
  <!-- Pulse Animation -->
  <circle cx="400" cy="300" r="30" fill="none" 
          stroke="#7C3AED" stroke-width="2" opacity="0.2">
    <animate attributeName="r" values="30;40;30" 
             dur="2s" repeatCount="indefinite" />
    <animate attributeName="opacity" values="0.2;0.1;0.2" 
             dur="2s" repeatCount="indefinite" />
  </circle>
</svg>