<svg xmlns="http://www.w3.org/2000/svg" width="800" height="600" viewBox="0 0 800 600">
  <defs>
    <linearGradient id="grad1" x1="0%" y1="0%" x2="100%" y2="100%">
      <stop offset="0%" style="stop-color:#4F46E5;stop-opacity:0.2" />
      <stop offset="100%" style="stop-color:#9333EA;stop-opacity:0.1" />
    </linearGradient>
  </defs>
  
  <!-- Background -->
  <rect width="800" height="600" fill="url(#grad1)" />
  
  <!-- Brain Icon -->
  <g transform="translate(300,200)" fill="none" stroke="#4F46E5" stroke-width="2">
    <path d="M100,0 C150,0 200,50 200,100 C200,150 150,200 100,200 C50,200 0,150 0,100 C0,50 50,0 100,0 Z" />
    <path d="M70,80 C70,60 90,40 110,40 C130,40 150,60 150,80 C150,100 130,120 110,120 C90,120 70,100 70,80 Z" />
    <path d="M50,100 C50,120 70,140 90,140 C110,140 130,120 130,100 C130,80 110,60 90,60 C70,60 50,80 50,100 Z" />
  </g>
  
  <!-- Circuit Lines -->
  <g stroke="#9333EA" stroke-width="1.5" stroke-dasharray="4,4">
    <path d="M200,300 L300,200" />
    <path d="M500,300 L400,200" />
    <path d="M350,400 L350,300" />
  </g>
  
  <!-- Data Points -->
  <g fill="#4F46E5">
    <circle cx="200" cy="300" r="4" />
    <circle cx="500" cy="300" r="4" />
    <circle cx="350" cy="400" r="4" />
  </g>
</svg>