<svg xmlns="http://www.w3.org/2000/svg" width="800" height="600" viewBox="0 0 800 600">
  <defs>
    <linearGradient id="grad1" x1="0%" y1="0%" x2="100%" y2="100%">
      <stop offset="0%" style="stop-color:#06B6D4;stop-opacity:0.2" />
      <stop offset="100%" style="stop-color:#8B5CF6;stop-opacity:0.1" />
    </linearGradient>
  </defs>
  
  <!-- Background -->
  <rect width="800" height="600" fill="url(#grad1)" />
  
  <!-- Lab Equipment Icons -->
  <g transform="translate(250,200)">
    <!-- Microscope -->
    <path d="M50,0 L70,0 L70,30 L90,50 L90,80 L30,80 L30,50 L50,30 Z" 
          fill="none" stroke="#06B6D4" stroke-width="2" />
    <circle cx="60" cy="15" r="5" fill="#06B6D4" />
    
    <!-- Test Tube -->
    <path d="M150,0 L170,0 L180,100 L140,100 Z" 
          fill="none" stroke="#8B5CF6" stroke-width="2" />
    <path d="M145,70 L175,70" stroke="#8B5CF6" stroke-width="2" />
  </g>
  
  <!-- Data Flow Lines -->
  <g stroke="#06B6D4" stroke-width="1.5" stroke-dasharray="4,4">
    <path d="M310,250 L400,250" />
    <path d="M420,250 L510,250" />
  </g>
  
  <!-- Integration Nodes -->
  <g fill="#8B5CF6">
    <circle cx="400" cy="250" r="5" />
    <circle cx="420" cy="250" r="5" />
    <circle cx="440" cy="250" r="5" />
  </g>
  
  <!-- Database Icon -->
  <g transform="translate(500,200)">
    <path d="M0,20 C0,8.954 22.386,0 50,0 C77.614,0 100,8.954 100,20 L100,80 C100,91.046 77.614,100 50,100 C22.386,100 0,91.046 0,80 Z" 
          fill="none" stroke="#06B6D4" stroke-width="2" />
    <path d="M0,20 C0,31.046 22.386,40 50,40 C77.614,40 100,31.046 100,20" 
          fill="none" stroke="#06B6D4" stroke-width="2" />
    <path d="M0,50 C0,61.046 22.386,70 50,70 C77.614,70 100,61.046 100,50" 
          fill="none" stroke="#06B6D4" stroke-width="2" />
  </g>
</svg>